<?xml version="1.0" encoding="UTF-8"?>
<!DOCTYPE svg PUBLIC "-//W3C//DTD SVG 1.1//EN" "http://www.w3.org/Graphics/SVG/1.1/DTD/svg11.dtd">
<!-- Creator: CorelDRAW 2017 -->
<svg xmlns="http://www.w3.org/2000/svg" xml:space="preserve" width="60mm" height="60mm" version="1.1" style="shape-rendering:geometricPrecision; text-rendering:geometricPrecision; image-rendering:optimizeQuality; fill-rule:evenodd; clip-rule:evenodd"
viewBox="0 0 6000 6000"
 xmlns:xlink="http://www.w3.org/1999/xlink">
 <defs>
  <style type="text/css">
   <![CDATA[
    .fil2 {fill:#FEFEFE}
    .fil1 {fill:#BA478F}
    .fil0 {fill:#FFFDDB}
   ]]>
  </style>
 </defs>
 <g id="Layer_x0020_1">
  <metadata id="CorelCorpID_0Corel-Layer"/>
  <g id="_2099360977664">
   <path class="fil0" d="M2481.88 5184.46c-260.33,-70.31 -530.16,-288.82 -646.06,-522.54 -195.72,-399.04 -127.31,-839.88 182.42,-1161 399.04,-412.35 1031.79,-419.94 1430.82,-17.1 205.22,207.12 304.03,442.74 304.03,723.96 0,286.93 -83.61,482.64 -304.03,704.96 -148.21,150.12 -302.12,241.32 -475.04,281.23 -121.61,28.5 -370.54,22.8 -492.14,-9.51zm-140.62 -402.83l98.81 -146.31 -62.7 -64.61 -64.61 -62.7 -119.71 79.81c-210.92,140.61 -203.32,125.41 -89.31,241.32 55.11,55.11 108.31,100.71 119.71,100.71 9.51,-1.9 62.71,-66.5 117.81,-148.22zm619.46 -262.23c167.21,-115.91 212.82,-332.53 108.31,-513.05 -117.81,-207.12 -410.44,-248.92 -596.66,-85.5 -95,83.61 -136.81,298.33 -85.5,433.24 79.81,212.81 380.04,300.22 573.85,165.31zm497.85 -826.57c15.2,-22.81 -155.82,-207.13 -193.83,-207.13 -13.3,0 -66.5,64.61 -121.6,144.42l-96.91 144.41 60.8 62.7 62.71 64.61 138.71 -93.11c76.01,-53.21 144.41,-104.51 150.12,-115.92l0 0.02z"/>
   <path class="fil0" d="M2683.3 4268.58c-60.81,-66.5 -28.51,-155.81 53.2,-155.81 43.7,0 104.51,53.2 104.51,91.2 0,30.4 -70.31,98.81 -100.71,98.81 -15.21,0 -39.91,-15.2 -57.01,-34.21l0.01 0.01z"/>
   <path class="fil0" d="M4097.02 3476.21c-1104,-511.15 -1379.53,-646.06 -1385.22,-678.36 -3.8,-15.2 79.81,-212.82 182.42,-435.14 104.51,-224.23 216.62,-471.25 250.82,-549.16 106.41,-243.22 209.02,-437.04 231.82,-437.04 20.9,0 1056.49,469.35 1499.24,680.27 129.21,62.7 288.82,136.81 353.43,165.32 207.12,91.2 209.02,55.1 -34.21,573.85 -404.73,860.77 -452.24,955.78 -476.94,955.78 -13.3,0 -292.62,-123.51 -621.36,-275.53l0 0.01zm805.68 -323.03c184.32,-395.23 351.53,-763.87 351.53,-775.27 0,-7.6 -248.92,-125.41 -769.57,-366.74 -239.43,-112.1 -571.95,-266.02 -737.26,-342.03 -165.32,-77.91 -307.84,-140.61 -315.43,-140.61 -7.6,0 -58.91,96.91 -114.02,214.72 -307.83,647.96 -473.14,1010.89 -467.44,1020.39 3.8,7.6 62.7,36.11 129.21,64.61l119.72 51.31 133.01 -77.91c95.01,-57.01 144.41,-76.01 182.42,-68.41 51.3,9.5 900.68,399.04 938.68,431.34 11.4,9.5 30.4,89.3 43.7,176.71l24.71 159.62 125.41 58.9c70.31,32.31 133.02,51.31 138.72,43.7 7.6,-7.59 104.51,-209.01 216.62,-450.34l-0.01 0.01zm-623.26 197.62c-5.7,-43.71 -20.9,-89.31 -36.1,-102.62 -13.3,-13.3 -210.92,-110.21 -440.84,-216.62l-416.14 -193.82 -74.11 49.4c-41.8,28.51 -72.2,53.2 -68.4,58.91 13.3,13.3 1010.89,478.84 1029.89,480.74 9.5,1.91 11.4,-34.2 5.7,-76l0 0.01z"/>
   <path class="fil0" d="M4480.86 3031.57c-167.21,-104.51 -152.01,-343.94 24.71,-429.44 178.61,-83.61 381.93,91.2 328.73,281.22 -41.81,152.01 -226.12,228.02 -353.44,148.22zm199.52 -108.31c28.5,-19.01 41.8,-47.51 41.8,-89.31 0,-76 -17.1,-100.71 -76,-123.51 -62.71,-22.8 -127.31,1.9 -153.91,60.81 -57.01,121.61 76,229.92 188.12,152.01l-0.01 0z"/>
   <path class="fil0" d="M3971.61 2799.75c-298.33,-134.91 -290.73,-123.52 -199.52,-326.83 83.61,-190.02 106.42,-222.32 150.12,-222.32 49.4,0 457.94,205.22 469.34,235.62 11.4,30.4 -161.52,395.23 -191.92,404.73 -9.5,1.91 -112.11,-38 -228.02,-91.2zm241.33 -169.12l51.31 -104.51 -153.92 -70.31c-83.61,-39.9 -157.71,-72.2 -161.52,-72.2 -7.59,0 -100.7,203.31 -100.7,220.42 0,15.2 271.72,138.71 294.52,133.01 11.4,-1.9 41.8,-49.4 70.31,-106.41z"/>
   <path class="fil0" d="M3378.76 2518.52c-167.22,-104.51 -153.92,-343.93 22.8,-427.54 95.01,-45.6 188.12,-26.6 269.82,55.11 55.11,55.11 62.71,76.01 62.71,159.62 0,83.61 -9.5,106.41 -62.71,165.31 -79.81,87.41 -197.62,106.41 -292.62,47.51l0 -0.01zm203.32 -115.91c45.6,-45.61 49.4,-136.81 7.6,-178.62 -45.61,-45.6 -152.02,-38 -186.22,11.41 -43.7,62.7 -36.1,121.6 19,165.31 62.71,49.41 110.21,51.31 159.62,1.91l0 -0.01z"/>
   <path class="fil0" d="M4406.75 2281c-689.76,-321.13 -796.17,-376.24 -796.17,-419.94 0,-20.9 13.3,-39.9 30.4,-43.7 26.6,-3.8 395.24,159.61 1029.9,457.94 123.51,58.91 222.32,117.81 222.32,131.11 0,26.61 -36.11,72.21 -55.11,72.21 -7.6,-1.9 -201.42,-89.3 -431.34,-197.62z"/>
   <path class="fil0" d="M1655.3 2206.89c-28.51,-36.1 -49.41,-70.31 -49.41,-76 0,-20.9 163.42,-108.31 201.42,-108.31 49.41,0 83.61,36.1 83.61,89.3 0,28.51 -26.6,60.81 -83.61,100.71 -47.5,30.4 -89.3,57.01 -95,57.01 -5.71,0 -30.4,-28.5 -57.01,-62.7l0 -0.01z"/>
   <path class="fil1" d="M2101.84 4857.64c-64.61,-62.71 -115.92,-123.52 -115.92,-134.91 0,-26.6 285.03,-228.02 324.94,-229.93 28.5,0 150.11,112.11 150.11,140.61 0,19.01 -186.22,288.83 -218.52,315.44 -19,17.09 -51.31,-3.8 -140.61,-91.21z"/>
   <path class="fil1" d="M2660.49 4606.81c-258.42,-60.8 -402.84,-332.53 -296.42,-560.55 152.01,-326.82 581.45,-340.13 744.87,-24.7 43.7,85.5 49.4,277.42 9.5,353.43 -30.4,58.91 -153.91,180.52 -210.92,207.13 -57.01,28.5 -182.42,41.8 -247.03,24.7l0 -0.01zm138.71 -402.84c7.6,-62.7 -58.9,-93.11 -104.51,-47.5 -45.6,45.6 -15.2,112.1 47.51,104.51 39.9,-3.8 53.2,-17.1 57.01,-57.01l-0.01 0z"/>
   <path class="fil1" d="M3082.33 3850.55l-70.31 -72.21 114.01 -165.32c64.61,-91.21 125.41,-165.31 134.91,-165.31 32.3,0 248.92,226.11 235.62,245.12 -15.21,26.6 -305.93,229.92 -326.83,229.92 -9.5,0 -49.4,-32.3 -87.41,-72.2l0.01 0z"/>
   <path class="fil1" d="M4535.97 3580.72c-131.11,-60.81 -144.41,-79.81 -172.92,-264.12 -11.4,-68.41 -26.6,-129.22 -34.2,-136.82 -17.1,-17.1 -853.18,-404.73 -910.19,-423.74 -24.7,-7.59 -81.7,15.21 -167.21,64.61 -70.31,41.81 -140.61,76.01 -153.91,76.01 -49.4,0 -275.53,-112.11 -275.53,-136.82 0,-13.3 81.71,-199.51 182.42,-414.23 100.71,-214.72 228.02,-486.45 285.03,-606.16 55.1,-119.71 108.31,-224.22 115.91,-231.82 19,-17.1 146.32,38.01 794.28,343.94 271.72,127.31 568.14,266.02 659.35,305.93 254.62,112.1 395.24,186.21 406.64,216.62 5.7,13.3 -70.31,203.31 -169.11,421.84 -304.03,665.06 -391.44,841.78 -416.14,841.78 -13.31,0 -77.91,-24.71 -144.42,-57.01l0 -0.01zm184.31 -579.55c115.91,-58.91 127.31,-243.23 19,-340.13 -53.2,-47.51 -72.2,-53.21 -153.91,-45.61 -108.31,11.41 -159.61,51.31 -186.22,150.12 -24.7,87.41 9.51,184.32 77.91,233.72 55.11,38.01 172.92,39.9 243.23,1.9l-0.01 0zm-435.14 -305.93c41.81,-89.31 76.01,-176.72 76.01,-191.92 0,-24.71 -399.04,-233.72 -448.44,-233.72 -20.9,0 -178.62,330.63 -178.62,372.43 0,22.8 406.64,216.62 452.24,216.62 13.3,0 58.9,-74.11 98.81,-163.41l0 0zm-640.36 -224.23c144.41,-133.01 49.41,-372.43 -146.31,-372.43 -100.71,0 -171.02,49.41 -201.42,142.52 -28.51,83.61 1.9,182.41 70.31,237.52 72.2,57.01 212.82,53.2 277.42,-7.6l0 -0.01zm1229.42 -51.29c0,-19.01 -106.41,-72.21 -792.37,-389.54 -404.74,-186.22 -444.65,-201.42 -456.04,-167.22 -3.8,11.41 81.7,62.71 188.12,112.11 1041.29,488.35 1060.3,495.94 1060.3,444.65l-0.01 0z"/>
   <path class="fil1" d="M4505.56 2932.76c-66.5,-53.2 -68.41,-152.02 -1.9,-216.62 62.7,-62.71 133.01,-60.81 201.42,7.59 68.4,68.41 70.31,114.01 5.7,190.02 -58.91,70.31 -131.11,77.91 -205.22,19l0 0.01z"/>
   <path class="fil1" d="M3988.72 2706.64c-85.51,-38 -159.62,-77.91 -165.32,-87.41 -15.2,-26.6 95.01,-254.62 125.41,-254.62 38.01,0 309.73,125.42 324.94,150.11 15.2,22.81 -66.51,212.82 -104.51,241.32 -20.9,17.1 -60.81,5.71 -180.52,-49.4l0 0z"/>
   <path class="fil1" d="M3403.46 2419.72c-66.5,-53.21 -68.41,-152.02 -1.9,-216.63 62.7,-62.7 133.01,-60.81 201.42,7.6 68.4,68.41 70.31,114.01 5.7,190.02 -58.91,70.3 -131.11,77.9 -205.22,19l0 0.01z"/>
   <path class="fil1" d="M3745.49 3212.09c-290.72,-136.82 -530.15,-256.53 -532.04,-267.93 -1.91,-20.9 138.71,-121.6 172.91,-123.51 36.1,0 847.48,380.04 883.58,416.14 38.01,34.21 57.01,212.82 24.71,220.42 -9.51,3.8 -256.53,-106.41 -549.16,-245.12l0 0z"/>
   <path class="fil1" d="M1657.2 2389.31c-87.41,-133.02 -165.32,-252.73 -172.91,-266.03 -7.6,-15.2 34.2,-55.1 121.6,-114.01 167.22,-110.21 247.03,-117.81 326.83,-26.6 98.81,110.21 58.91,229.92 -112.11,343.93l-43.7 28.51 64.61 104.51c68.41,108.31 70.31,121.61 9.5,152.01 -32.3,19.01 -53.2,-3.8 -193.82,-222.31l0 -0.01zm153.91 -209.02c66.51,-51.31 76.01,-83.61 30.4,-121.61 -24.7,-20.9 -43.7,-17.1 -114.01,19 -93.11,49.41 -96.91,58.91 -53.2,125.42 32.3,49.4 39.9,49.4 136.81,-22.8l0 -0.01z"/>
   <path class="fil1" d="M2219.65 2250.6c-72.2,-41.81 -74.1,-51.31 -32.3,-96.91 22.8,-26.6 38.01,-28.51 81.71,-11.41 45.6,17.1 62.7,13.3 114.01,-22.8 112.11,-79.81 32.3,-184.32 -83.61,-108.31 -41.81,26.61 -45.61,26.61 -76.01,-19 -30.4,-45.6 -28.5,-49.4 28.51,-102.61 49.4,-47.51 55.1,-60.81 38,-95.01 -24.7,-47.51 -49.4,-47.51 -127.31,0 -41.8,24.71 -62.7,51.31 -62.7,81.71 0,49.4 -62.7,117.81 -93.11,100.71 -9.5,-5.71 -22.8,-36.11 -30.4,-66.51 -26.6,-119.71 119.71,-267.92 262.23,-267.92 85.5,0 184.31,81.71 184.31,153.91 0,24.71 28.51,66.51 70.31,102.62 60.81,51.3 72.21,72.2 72.21,138.71 0,91.21 -51.31,153.91 -171.02,212.82 -96.91,47.51 -98.81,47.51 -174.82,0l-0.01 0z"/>
   <path class="fil0" d="M1258.16 3132.28c-79.81,-43.71 -454.14,-621.36 -465.54,-720.17 -15.21,-146.31 13.3,-172.92 524.45,-511.15 258.42,-171.02 566.25,-370.53 685.96,-446.54 336.33,-209.02 385.73,-195.72 632.76,182.42 87.41,133.01 178.62,273.62 201.42,311.63 55.1,91.21 55.1,201.42 0,283.13 -41.81,60.8 -579.56,425.64 -1162.91,790.47 -243.22,150.11 -309.73,169.12 -416.14,110.21l0 0zm169.12 -281.23c5.7,-15.2 -32.31,-91.21 -85.51,-171.02 -98.81,-146.31 -100.71,-186.21 -5.7,-136.81 77.91,39.9 123.51,9.5 106.41,-74.11 -20.9,-115.91 26.6,-91.21 127.31,64.61 98.81,157.71 104.51,163.41 144.41,138.71 32.31,-20.89 -277.42,-501.64 -317.32,-492.14 -22.81,3.8 -28.51,36.1 -30.4,136.81 0,74.11 -1.91,140.61 -3.8,148.22 -1.91,9.5 -49.41,-9.5 -106.42,-41.81 -106.41,-62.7 -153.91,-72.2 -172.91,-38 -15.2,20.9 288.83,492.14 317.33,492.14 9.5,0 20.89,-11.4 26.6,-26.6zm435.14 -279.33c7.6,-9.5 -17.1,-64.6 -53.2,-121.6l-68.41 -100.71 93.11 -62.71c125.42,-85.5 155.82,-153.91 112.11,-250.82 -22.8,-51.31 -89.31,-89.31 -157.71,-89.31 -58.91,0 -283.13,146.32 -271.72,176.72 20.9,57.01 300.22,469.34 315.43,469.34 11.4,0 24.7,-9.5 30.4,-20.9l-0.01 -0.01zm560.55 -361.03c89.31,-55.11 112.11,-91.21 114.01,-172.91 0,-57.01 -11.4,-79.82 -64.61,-123.52 -38,-30.4 -70.31,-79.81 -77.9,-114.01 -22.81,-112.1 -142.52,-169.11 -243.23,-117.81 -95.01,49.41 -146.31,117.81 -146.31,191.92 0,39.9 5.7,72.21 15.2,72.21 34.21,-1.91 60.81,-34.21 49.4,-62.71 -13.3,-38 72.21,-123.51 140.62,-140.61 106.41,-26.6 161.51,96.91 72.2,157.71 -51.3,32.31 -64.61,72.21 -30.4,93.11 9.5,5.71 38.01,-1.9 60.81,-17.1 60.81,-43.7 104.51,-38 140.61,17.1 28.51,43.71 28.51,51.31 1.9,91.21 -41.8,64.61 -144.41,110.21 -190.01,85.51 -38.01,-19 -89.31,-9.5 -89.31,19 0,24.71 76.01,58.91 133.02,58.91 26.6,1.9 77.91,-17.1 114.01,-38.01l-0.01 0z"/>
   <path class="fil1" d="M2831.51 5786.82c-51.31,-28.5 -129.22,-74.11 -169.12,-102.61 -39.9,-28.51 -81.71,-51.31 -93.11,-51.31 -11.41,0 -34.21,-11.4 -49.41,-26.6 -34.2,-30.4 -239.42,-146.31 -343.93,-193.82 -36.1,-17.1 -110.21,-60.81 -163.41,-95.01 -53.21,-36.1 -104.51,-64.61 -114.01,-64.61 -9.51,0 -66.51,-34.2 -129.22,-76 -60.81,-41.81 -119.71,-76.01 -129.21,-76.01 -9.5,0 -45.61,-20.89 -79.81,-47.5 -34.21,-26.6 -66.51,-43.7 -72.21,-38.01 -5.7,5.7 -20.9,-1.9 -34.21,-19 -13.3,-15.21 -30.4,-28.51 -38,-28.51 -9.5,0 -60.81,-30.4 -117.81,-66.5 -55.11,-36.1 -117.81,-72.2 -138.72,-79.81 -20.9,-5.7 -62.7,-30.4 -95.01,-53.2 -30.4,-22.8 -142.51,-89.31 -247.02,-148.22 -104.51,-58.9 -214.72,-127.31 -247.02,-152.02l-55.11 -47.5 -7.6 -1415.64 -5.7 -1417.53 77.91 -49.4c41.8,-26.6 112.11,-70.31 157.71,-98.81 43.7,-28.5 83.61,-53.2 89.31,-53.2 9.5,-1.9 275.52,-155.81 461.74,-267.92 49.4,-30.4 129.21,-76.01 174.82,-102.61 45.6,-26.61 178.62,-102.62 294.52,-171.02 115.92,-68.41 250.82,-146.32 300.23,-174.82 49.4,-28.51 115.91,-66.51 150.11,-85.51 651.76,-374.33 860.78,-473.14 860.78,-404.73 0,11.4 11.4,19 26.6,19 30.4,0 1698.75,950.09 1776.66,1008.99 24.71,20.9 55.11,36.11 66.5,36.11 11.41,0 68.41,30.4 125.42,68.4 57.01,38.01 121.61,76.01 142.51,85.51 20.9,9.5 64.61,34.21 95.01,55.1 32.3,20.9 85.51,51.31 117.81,66.51 34.21,15.2 66.5,47.51 72.21,72.2 5.7,22.81 7.59,674.56 5.7,1446.04l-5.7 1406.13 -85.51 51.3c-47.51,28.51 -178.62,106.42 -292.63,172.92 -114.01,66.5 -235.62,136.81 -269.82,157.71 -102.62,62.71 -294.53,172.92 -397.14,228.02 -51.31,28.51 -108.31,62.71 -123.51,74.11 -15.21,13.3 -49.41,34.21 -76.01,45.61 -26.6,13.3 -81.7,43.7 -123.51,70.3 -41.8,26.61 -117.81,70.31 -171.02,96.92 -51.31,28.5 -129.21,72.2 -171.02,100.71 -41.8,26.6 -98.8,58.9 -125.41,70.3 -26.6,11.41 -85.51,45.61 -133.02,76.01 -45.6,30.4 -114.01,68.41 -150.11,87.41 -36.1,19 -100.71,55.1 -142.51,81.71 -163.42,102.61 -250.83,110.21 -399.05,30.4l0.06 0.01zm224.22 -647.96c400.93,-123.51 666.96,-495.94 666.96,-931.09 -1.9,-562.45 -421.84,-986.19 -976.69,-988.09 -380.04,0 -716.37,201.42 -877.89,526.36 -89.3,176.71 -115.91,315.43 -106.41,518.74 15.21,260.33 112.11,476.94 302.13,661.26 102.62,98.81 349.63,226.12 492.15,248.92 138.71,24.71 355.33,9.5 499.74,-36.1l0.01 0zm1715.86 -1504.94c28.5,-55.1 108.3,-224.22 178.61,-376.24 70.31,-152.01 193.83,-414.23 273.63,-583.35 79.81,-171.02 144.41,-321.13 144.41,-334.43 0,-15.21 -62.7,-55.11 -136.81,-89.31 -76.01,-34.2 -228.02,-104.51 -338.23,-155.81 -511.15,-243.23 -1440.34,-665.06 -1482.14,-672.67 -55.11,-11.4 -55.11,-11.4 -266.03,457.95 -70.31,157.71 -188.12,414.23 -260.32,570.05 -72.21,157.71 -138.72,300.23 -144.41,319.23 -11.41,30.4 24.7,53.2 229.92,150.11 231.82,112.11 1738.66,811.38 1746.26,813.28 3.8,0 28.51,-45.61 55.11,-98.81zm-3165.7 -598.55c77.91,-47.51 380.04,-241.32 668.86,-431.33 480.75,-313.53 530.15,-351.54 558.66,-419.94 17.1,-43.7 24.7,-98.81 19,-133.02 -15.2,-72.2 -368.63,-619.45 -431.34,-661.26 -51.3,-38 -190.01,-41.8 -250.82,-9.5 -66.5,34.21 -1056.49,676.47 -1189.51,769.57 -133.01,96.91 -182.41,176.71 -163.41,279.33 7.6,34.2 104.51,197.62 214.72,364.83 266.03,397.14 294.52,408.54 573.85,241.32l-0.01 0z"/>
   <path class="fil1" d="M1206.86 2655.33l-171.02 -262.22 39.9 -38.01 38.01 -38 115.91 64.6 115.92 62.71 -9.5 -125.42c-9.51,-112.11 -5.71,-129.21 28.5,-153.91 26.6,-19 47.51,-20.9 62.7,-9.5 11.41,11.4 93.12,127.31 178.62,256.52 153.91,231.82 155.82,239.43 123.51,275.53 -19,20.9 -39.9,38.01 -47.5,38.01 -7.6,0 -57.01,-66.51 -112.11,-146.32 -91.21,-140.61 -96.91,-144.41 -96.91,-85.5 0,76 -64.61,115.91 -131.11,81.7 -20.9,-13.3 -39.9,-17.1 -39.9,-11.4 0,7.6 38,72.2 85.5,144.41 89.31,136.81 91.21,153.91 26.6,188.12 -32.3,19 -53.2,-5.7 -207.12,-241.32l0 0z"/>
  </g>
  <g id="_2099360973792">
   <path class="fil1" d="M2620.15 5697.66c-445.73,-255.82 -786.82,-453.49 -1519.37,-881.78l-591.09 -343.02 -5.81 -1465.12 -3.88 -1465.11 207.36 -122.1c116.28,-65.89 375.97,-218.99 577.52,-339.14 203.49,-120.16 542.64,-319.77 755.82,-445.74 213.18,-125.97 478.68,-282.94 591.09,-348.83 255.81,-153.1 317.83,-184.11 362.4,-184.11 34.89,0 261.63,125.97 936.04,517.44 164.74,94.97 519.38,300.39 784.89,455.43 267.44,155.04 550.39,319.77 629.84,368.22l145.35 85.27 5.82 1463.17 3.87 1465.12 -420.54 248.06c-232.56,137.6 -587.21,346.9 -790.7,465.12 -201.55,120.15 -521.32,308.14 -707.36,416.66 -470.93,279.07 -527.14,310.08 -573.65,310.08 -21.31,0 -195.73,-89.15 -387.6,-199.61l0 -0.01z"/>
   <g>
    <path class="fil2" d="M1882.61 1748.91c-87.08,24.63 -157.17,122.6 -157.17,217.77l0 1508.81c-88.3,-48.8 -201.7,-68.53 -319.27,-36.29 -212.15,58.19 -345.09,246.24 -299.62,419.97 45.48,173.72 254.47,270.76 466.62,212.58 169.26,-46.43 285.92,-177.78 304.53,-316.29l4.92 -1425.84 1100.24 -311.09 0 1125.12c-88.3,-48.81 -201.7,-68.53 -319.27,-36.29 -212.16,58.19 -345.09,246.24 -299.62,419.97 45.47,173.72 254.47,270.76 466.62,212.58 169.26,-46.43 285.92,-177.78 304.53,-316.29l4.91 -1856.19c0,-71.37 -41.79,-124.77 -98.24,-134.81l-1159.19 316.29 0.01 0zm0 0l0 0 0 0z"/>
   </g>
   <rect class="fil2" x="4148.1" y="3260.41" width="859.21" height="450.46"/>
   <rect class="fil2" x="3422.38" y="3260.41" width="550.56" height="450.46"/>
   <rect class="fil2" x="3422.38" y="2634.79" width="550.56" height="450.46"/>
   <rect class="fil2" x="3422.38" y="2034.18" width="550.56" height="450.46"/>
   <rect class="fil2" x="4148.1" y="2634.79" width="859.21" height="450.46"/>
  </g>
 </g>
</svg>
